<svg xmlns="http://www.w3.org/2000/svg" viewBox="0 0 64 64"><g id="a"></g><g id="b"></g><g id="c"></g><g id="d"></g><g id="e"></g><g id="f"></g><g id="g"></g><g id="h"></g><g id="i"></g><g id="j"></g><g id="k"></g><g id="l"></g><g id="m"></g><g id="n"></g><g id="o"></g><g id="p"><path d="M27.01,39.21c.12,3.42-.97,6.27-1.97,8.13l2.33,2.21,11.04-1.32s-4.87-11.21-5.13-11.21-6.27,2.19-6.27,2.19Z" fill="#f2d865" fill-rule="evenodd"></path><path d="M20.99,47.35c-1.67,0-3.02,1.35-3.02,3.02s1.35,3.02,3.02,3.02h13.82l.05-3.13-1.87-2.91h-12.01Z" fill="#f5e680" fill-rule="evenodd"></path><path d="M9.84,18.38H51.1v3.35c0,2.3-1.59,4.05-3.8,4.29H13.64c-2.21-.24-3.8-1.99-3.8-4.29v-3.35Zm-1.22-4.84c-2.01,0-3.62,1.61-3.62,3.62v4.57c0,5.07,4.08,9.16,9.16,9.16H46.78c5.07,0,9.16-4.09,9.16-9.16v-4.57c0-2.01-1.61-3.62-3.62-3.62H8.62Z" fill="#f2d865" fill-rule="evenodd"></path><path d="M38.96,37.44c5.55-2.88,9.49-8.35,8.08-14.43l-2.42-10.43c-.26-1.14-1.28-1.95-2.45-1.95H18.78c-1.17,0-2.19,.81-2.45,1.95l-2.42,10.43c-2.07,8.94,7.39,16.56,16.56,16.56,.59,0,1.18-.03,1.77-.09l6.72-2.03Z" fill="#f5e680" fill-rule="evenodd"></path><path d="M31.59,16.94l1.61,3.07,3.42,.58c1,.17,1.4,1.4,.69,2.12l-2.42,2.48,.5,3.43c.15,1.01-.9,1.76-1.8,1.31l-3.11-1.54-3.11,1.54c-.91,.45-1.95-.31-1.81-1.31l.5-3.43-2.42-2.48c-.71-.73-.31-1.95,.69-2.12l3.42-.58,1.61-3.07c.47-.9,1.76-.9,2.23,0Z" fill="#e6a361" fill-rule="evenodd"></path><path d="M7.49,18.38v3.35c0,2.3,1.59,4.05,3.8,4.29h2.35c-2.21-.24-3.8-1.99-3.8-4.29v-3.35h-2.35Zm42.48-4.84c2.01,0,3.62,1.61,3.62,3.62v4.57c0,5.07-4.08,9.16-9.16,9.16h2.35c5.07,0,9.16-4.09,9.16-9.16v-4.57c0-2.01-1.61-3.62-3.62-3.62h-2.35Z" fill="#e9c03d" fill-rule="evenodd"></path><path d="M39.27,10.62c1.17,0,2.19,.81,2.45,1.95l2.42,10.43c1.41,6.08-2.52,11.56-8.07,14.43l-6.72,2.03c-.11,.01-.21,.02-.32,.03,.48,.04,.96,.07,1.45,.07,.59,0,1.18-.03,1.77-.09l6.72-2.03c5.55-2.88,9.48-8.35,8.07-14.43l-2.42-10.43c-.27-1.14-1.28-1.95-2.46-1.95h-2.89Z" fill="#f2d865" fill-rule="evenodd"></path><path d="M34.64,37.44c-1.47,0-2.66,1.18-2.66,2.66s1.18,2.66,2.66,2.66v5.31c-1.47,0-2.66,1.19-2.66,2.66s1.18,2.66,2.66,2.66h12.45c.61,0,1.18-.21,1.63-.56l-1.17-11.6-4.23-3.78h-8.67Z" fill="#8996a8" fill-rule="evenodd"></path><path d="M41.75,48.07h-7.11c-1.47,0-2.66-1.18-2.66-2.66s1.19-2.66,2.66-2.66h6.1l1.01,5.31Z" fill="#7a8594" fill-rule="evenodd"></path><path d="M58.82,43.81c0,5.01-4.06,9.08-9.08,9.08s-9.08-4.06-9.08-9.08,4.07-9.08,9.08-9.08,9.08,4.07,9.08,9.08Z" fill="#e8a3c1" fill-rule="evenodd"></path><path d="M53.54,43.81c0,2.1-1.7,3.8-3.8,3.8s-3.8-1.7-3.8-3.8,1.7-3.8,3.8-3.8,3.8,1.7,3.8,3.8Z" fill="#8996a8" fill-rule="evenodd"></path><path d="M49.74,34.73c-.41,0-.82,.03-1.22,.09,4.49,.62,7.84,4.46,7.84,8.99,0,4.54-3.35,8.38-7.85,8.99,.41,.06,.82,.09,1.23,.09,5.01,0,9.08-4.06,9.08-9.08,0-5.01-4.06-9.08-9.08-9.08Z" fill="#e38fb6" fill-rule="evenodd"></path><path d="M49.92,33.73c-2.64,0-5.02,1.04-6.82,2.71h-.75c1.73-1.33,3.13-2.86,4.13-4.54h.31c5.6,0,10.16-4.56,10.16-10.16v-4.58c0-2.55-2.07-4.62-4.62-4.62h-6.69l-.04-.19c-.37-1.58-1.81-2.72-3.43-2.72H18.78c-1.62,0-3.06,1.15-3.43,2.72l-.04,.19h-6.69c-2.55,0-4.62,2.07-4.62,4.62v4.58c0,5.6,4.56,10.16,10.16,10.16h.38c.33,.55,.63,1.11,1.05,1.63,2.49,3.14,6.31,5.45,10.39,6.46-.05,2.61-.8,4.81-1.57,6.35h-3.42c-2.22,0-4.02,1.8-4.02,4.02s1.8,4.02,4.02,4.02h26.27c.68,0,1.31-.22,1.89-.57,.26,.02,.51,.08,.77,.08,5.54,0,10.08-4.51,10.08-10.08s-4.51-10.08-10.08-10.08Zm6.35,15.01l-2.33-2.33c.31-.48,.55-1.02,.67-1.6h3.29c-.18,1.47-.76,2.82-1.63,3.93Zm-11.29,1.41l2.33-2.33c.48,.31,1.02,.55,1.61,.67v3.29c-1.47-.19-2.82-.76-3.94-1.63Zm-10.17-3.09c-.91,0-1.66-.74-1.66-1.66s.74-1.66,1.66-1.66h5.03s0,.04,0,.06c0,1.15,.23,2.23,.59,3.26h-5.61Zm-1.66-6.97c0-.91,.74-1.66,1.66-1.66h6.61c-.64,1-1.12,2.11-1.37,3.32h-5.24c-.91,0-1.66-.74-1.66-1.66Zm16.76,6.51c-1.54,0-2.8-1.26-2.8-2.8s1.25-2.8,2.8-2.8,2.8,1.26,2.8,2.8-1.26,2.8-2.8,2.8Zm-7.98-3.8c.18-1.48,.76-2.82,1.63-3.94l2.33,2.33c-.31,.48-.55,1.02-.67,1.6h-3.29Zm10.58-3.02c-.48-.31-1.02-.55-1.61-.67v-3.29c1.48,.18,2.82,.76,3.94,1.63l-2.33,2.33Zm-3.61-.67c-.58,.12-1.12,.36-1.61,.67l-2.33-2.33c1.12-.87,2.46-1.44,3.93-1.63v3.29Zm-6.98,5.69h3.29c.12,.58,.36,1.12,.67,1.61l-2.33,2.33c-.87-1.12-1.44-2.46-1.63-3.94Zm8.98,3.69c.58-.12,1.12-.36,1.61-.67l2.33,2.33c-1.12,.87-2.46,1.44-3.94,1.63v-3.29Zm3.69-5.69c-.12-.58-.36-1.12-.67-1.6l2.33-2.33c.87,1.12,1.44,2.46,1.63,3.94h-3.29Zm-6.34-18.09c-.04-.64-.11-1.29-.26-1.93l-.79-3.4h2.88v2.35c0,1.35-.72,2.46-1.83,2.98Zm4.05-10.18c1.45,0,2.62,1.18,2.62,2.62v4.58c0,4.26-3.3,7.73-7.47,8.09,.38-.99,.62-2.01,.74-3.05,2.27-.62,3.89-2.57,3.89-5.04v-3.35c0-.55-.45-1-1-1h-4.34l-.66-2.84h6.22ZM12.94,22.78c-.15,.65-.17,1.3-.22,1.95-1.14-.52-1.88-1.62-1.88-2.99v-2.35h2.88l-.79,3.4Zm-6.94-1.04v-4.58c0-1.45,1.18-2.62,2.62-2.62h6.22l-.66,2.84h-4.35c-.55,0-1,.45-1,1v3.35c0,2.49,1.64,4.46,3.94,5.06,.12,1.03,.37,2.04,.75,3.04-4.2-.33-7.53-3.81-7.53-8.1Zm11.15,10.55c-1.54-1.94-3.18-5.08-2.26-9.05l2.42-10.43c.16-.68,.78-1.18,1.48-1.18h23.38c.7,0,1.32,.49,1.48,1.18l2.42,10.43c1.42,6.1-3.04,10.89-7.36,13.21h-3.88c-1.44,0-2.66,.86-3.26,2.07-.36,.02-.73,.06-1.08,.06-5.06,0-10.29-2.47-13.32-6.28Zm10.8,8.08c.84,.12,1.68,.2,2.52,.2,.25,0,.52-.03,.77-.04,.11,.87,.48,1.66,1.09,2.23-.72,.67-1.18,1.6-1.18,2.66,0,.33,.11,.63,.19,.94h-4.73c.68-1.58,1.23-3.63,1.33-5.98Zm-8.98,9.99c0-1.11,.91-2.02,2.02-2.02h11.1c-.56,.64-.93,1.46-.93,2.38,0,.61,.18,1.15,.45,1.66h-10.61c-1.11,0-2.02-.91-2.02-2.02Zm15.84,2.02c-.91,0-1.66-.74-1.66-1.66s.74-1.66,1.66-1.66h6.55c.93,1.5,1.82,2.39,3.33,3.31h-9.87Z"></path><path d="M33.14,30.84c.32,.16,.66,.24,1,.24,.47,0,.93-.15,1.33-.43,.68-.5,1.03-1.32,.91-2.16l-.43-2.94,2.08-2.13c.59-.6,.79-1.48,.53-2.28-.26-.8-.94-1.39-1.77-1.53l-2.93-.5-1.38-2.63c-.39-.75-1.16-1.21-2-1.21s-1.61,.46-2,1.21l-1.38,2.63-2.93,.5c-.83,.14-1.51,.73-1.77,1.53-.26,.8-.06,1.67,.53,2.28l2.08,2.13-.43,2.94c-.12,.83,.23,1.66,.91,2.16,.68,.49,1.58,.57,2.33,.2l2.66-1.32,2.67,1.32Zm-6.22-1.79c-.11,.06-.21,.02-.27-.02-.06-.04-.12-.12-.11-.25l.5-3.43c.04-.31-.06-.62-.27-.84l-2.42-2.48c-.09-.09-.08-.19-.06-.26s.08-.15,.2-.18l3.42-.58c.31-.05,.57-.25,.72-.52l1.61-3.07c.12-.23,.34-.23,.46,0h0l1.61,3.07c.15,.28,.41,.47,.72,.52l3.42,.58c.13,.02,.18,.11,.2,.18,.02,.07,.03,.17-.06,.26l-2.42,2.48c-.22,.22-.32,.54-.27,.84l.5,3.43c.02,.13-.05,.21-.1,.25-.06,.04-.15,.08-.27,.02l-3.11-1.54c-.14-.07-.29-.1-.44-.1s-.3,.03-.44,.1l-3.11,1.54Z"></path></g><g id="q"></g><g id="r"></g><g id="s"></g><g id="t"></g><g id="u"></g><g id="v"></g><g id="w"></g><g id="x"></g><g id="y"></g><g id="a`"></g><g id="aa"></g><g id="ab"></g><g id="ac"></g><g id="ad"></g><g id="ae"></g><g id="af"></g><g id="ag"></g><g id="ah"></g><g id="ai"></g><g id="aj"></g><g id="ak"></g><g id="al"></g><g id="am"></g><g id="an"></g><g id="ao"></g><g id="ap"></g><g id="aq"></g><g id="ar"></g><g id="as"></g><g id="at"></g><g id="au"></g><g id="av"></g><g id="aw"></g><g id="ax"></g></svg>