<svg xmlns="http://www.w3.org/2000/svg" xmlns:xlink="http://www.w3.org/1999/xlink" id="katman_1" style="enable-background:new 0 0 512 512;" viewBox="0 0 512 512" xml:space="preserve"><style type="text/css">	.st0{fill:#3997D3;}	.st1{fill:#2981BA;}	.st2{fill:#FFFFFF;}</style><g><g><circle class="st0" cx="256" cy="256" r="250"></circle></g><g><path class="st1" d="M499.1,314.6c-0.3-0.3-0.7-0.7-1.2-1.2C441,256.5,384.2,199.7,327.3,142.8c-0.6-0.6-1.1-1.1-1.7-1.7    c-12.8-12.1-34-7-39.9,9.7c-1.8,5-3.5,10.1-5.2,15.2c-5,15-13.4,27.7-25.3,38c-9.6,8.2-19.3,16.3-29,24.4    c-2.1,1.8-3.6,1.7-5.6-0.3c-5.3-5.3-10.7-10.6-15.9-16c-3.3-3.4-7.3-5-12-5c-13.6,0.1-27.2,0-40.8,0c-10,0-20,0-30,0    c-3.5,0-6.6,0.9-9.4,3.1c-4,3.1-5.8,7.2-5.8,12.3c0,23.4,0,46.9,0,70.3c0,23.4,0,46.7,0,70.1c0,4.9,1.6,8.8,5,12.2    c43.1,43.1,86.2,86.2,129.3,129.3c0.5,0.5,0.9,0.9,1.4,1.2c4.5,0.2,9,0.4,13.5,0.4C373.9,506,472.7,424.4,499.1,314.6z"></path></g><g><circle class="st2" cx="170.6" cy="337.2" r="10.1"></circle><path class="st2" d="M399.9,282.5c0-5-1.5-9.6-4.2-13.4c6.2-4.3,10.3-11.5,10.3-19.5c0-13.1-10.7-23.8-23.8-23.8h-62.5l4-8.9    c5.8-13,8.7-26.8,8.8-41c0,0,0-17.3,0-17.4c0-13.5-11-24.4-24.4-24.4c-10,0-18.9,6-22.7,15.3c-0.2,0.4-5.9,17.2-5.9,17.2    c-5.1,14.9-14.2,28.1-26.3,38.2l-29,24.3h-16.8v-7.7c0-8-6.5-14.6-14.6-14.6h-72.3c-8,0-14.6,6.5-14.6,14.6v142.1    c0,8,6.5,14.6,14.6,14.6h72.3c8,0,14.6-6.5,14.6-14.6V352h9.2l9.1,4.4c21.5,10.4,45.5,15.9,69.4,15.9h33.2h10.1H364    c13.1,0,23.8-10.7,23.8-23.8c0-5-1.5-9.6-4.2-13.4c6.2-4.3,10.3-11.5,10.3-19.5c0-5-1.5-9.6-4.2-13.4    C395.9,297.8,399.9,290.6,399.9,282.5z M192.8,363.4h-72.3V221.3h72.3V363.4C192.9,363.4,192.9,363.4,192.8,363.4z M364,357.7    h-25.6h-10.1H295c-21.7,0-43.5-5-63-14.4l-10.6-5.1c-1-0.5-2.1-0.7-3.2-0.7h-10.8v-93.9h19.4c1.7,0,3.4-0.6,4.7-1.7l31-26    c14.1-11.8,24.8-27.3,30.7-44.7c0,0,5.8-16.9,5.8-17c1.6-3.4,5.1-5.6,8.9-5.6c5.4,0,9.9,4.4,9.9,9.9c0,0.1,0,17.4,0,17.4    c0,12.2-2.6,24-7.5,35.1l-8.5,19c-0.7,1.7-0.8,3.5-0.3,5.1c0,0.1,1.6,5.3,7,5.3h73.7c5.1,0,9.2,4.1,9.2,9.2s-4.1,9.2-9.2,9.2    h-10.4c-4,0-7.3,3.3-7.3,7.3s3.3,7.3,7.3,7.3h4.3c5.1,0,9.2,4.1,9.2,9.2s-4.1,9.2-9.2,9.2h-10.4c-4,0-7.3,3.3-7.3,7.3    s3.3,7.3,7.3,7.3h4.3c5.1,0,9.2,4.1,9.2,9.2c0,5.1-4.1,9.2-9.2,9.2h-10.4c-4,0-7.3,3.3-7.3,7.3c0,4,3.3,7.3,7.3,7.3h4.3    c5.1,0,9.2,4.1,9.2,9.2C373.2,353.6,369,357.7,364,357.7z"></path></g></g></svg>