<svg xmlns:dc="http://purl.org/dc/elements/1.1/" xmlns:cc="http://creativecommons.org/ns#" xmlns:rdf="http://www.w3.org/1999/02/22-rdf-syntax-ns#" xmlns:svg="http://www.w3.org/2000/svg" xmlns="http://www.w3.org/2000/svg" xmlns:sodipodi="http://sodipodi.sourceforge.net/DTD/sodipodi-0.dtd" xmlns:inkscape="http://www.inkscape.org/namespaces/inkscape" width="48pt" height="48pt" viewBox="0 0 16.933334 16.933333" id="svg979" inkscape:version="0.92.4 (5da689c313, 2019-01-14)" sodipodi:docname="10 - Money Bag.svg" inkscape:export-filename="E:\TR Design Studio Creative\Project Design\TR Creative Design\Icon Design\Project Hiring\Icon Icons\003 - Business And Finance\Send\4 - Filled Line\9 - Business Target.png" inkscape:export-xdpi="768" inkscape:export-ydpi="768"><defs id="defs973"></defs><metadata></metadata><g inkscape:label="Layer 1" inkscape:groupmode="layer" id="layer1" transform="translate(0,-280.06668)"><g transform="matrix(1.2168525,0,0,1.2168525,-26.047195,-65.145078)" style="display:inline;stroke-width:0.8217923" id="g2173"><path inkscape:connector-curvature="0" id="path1438" d="m 27.165961,284.49266 c -0.197589,0.008 -0.388986,0.0467 -0.546875,0.17578 -0.15789,0.12911 -0.237131,0.3494 -0.22461,0.56836 0.02504,0.43791 0.295611,0.96393 0.861328,1.78125 0.368243,0.53201 0.533256,0.86017 0.851563,1.43359 a 0.26460996,0.26460996 0 0 0 0.230469,0.13672 h 1.324218 a 0.26460996,0.26460996 0 0 0 0.146485,-0.0449 c 0.272798,-0.18187 1.033904,-0.78604 1.660156,-1.49805 0.313126,-0.356 0.589037,-0.73264 0.736328,-1.11719 0.147292,-0.38454 0.14607,-0.83439 -0.162109,-1.14257 -0.170955,-0.17096 -0.41076,-0.18581 -0.607422,-0.1543 -0.196662,0.0315 -0.388288,0.10509 -0.576172,0.18164 -0.187884,0.0765 -0.370835,0.15632 -0.523438,0.20898 -0.152602,0.0527 -0.27597,0.0651 -0.298828,0.0605 -0.462964,-0.0926 -0.995327,-0.24387 -1.5,-0.37109 -0.504673,-0.12723 -0.975916,-0.2354 -1.371093,-0.21875 z" style="color:#000000;font-style:normal;font-variant:normal;font-weight:normal;font-stretch:normal;font-size:medium;line-height:normal;font-family:sans-serif;font-variant-ligatures:normal;font-variant-position:normal;font-variant-caps:normal;font-variant-numeric:normal;font-variant-alternates:normal;font-feature-settings:normal;text-indent:0;text-align:start;text-decoration:none;text-decoration-line:none;text-decoration-style:solid;text-decoration-color:#000000;letter-spacing:normal;word-spacing:normal;text-transform:none;writing-mode:lr-tb;direction:ltr;text-orientation:mixed;dominant-baseline:auto;baseline-shift:baseline;text-anchor:start;white-space:normal;shape-padding:0;clip-rule:nonzero;display:inline;overflow:visible;visibility:visible;isolation:auto;mix-blend-mode:normal;color-interpolation:sRGB;color-interpolation-filters:linearRGB;solid-color:#000000;solid-opacity:1;vector-effect:none;fill:#7cb342;fill-opacity:1;fill-rule:nonzero;stroke:none;stroke-width:0.43486536;stroke-linecap:round;stroke-linejoin:round;stroke-miterlimit:4;stroke-dasharray:none;stroke-dashoffset:0;stroke-opacity:1;color-rendering:auto;image-rendering:auto;shape-rendering:auto;text-rendering:auto;enable-background:accumulate"></path><path inkscape:connector-curvature="0" id="path1403" d="m 28.974554,289.11766 -0.771484,0.002 a 0.26460996,0.26460996 0 0 0 -0.105469,0.0215 c -1.028068,0.44885 -2.246924,1.30174 -2.679687,2.54297 a 0.26460996,0.26460996 0 0 0 -0.0098,0.14063 l 0.988281,4.7539 a 0.26460996,0.26460996 0 0 0 0.259766,0.21094 c 0,0 1.168039,-0.005 2.33789,0 a 0.26460996,0.26460996 0 0 0 0.0078,0 c 1.515788,-0.0402 2.614412,-0.60541 3.226563,-1.50976 0.612151,-0.90435 0.727873,-2.11043 0.404297,-3.39453 a 0.26460996,0.26460996 0 0 0 0,-0.004 c -0.36088,-1.34682 -1.658463,-2.26793 -2.740235,-2.74024 a 0.26460996,0.26460996 0 0 0 -0.105468,-0.0215 l -0.771485,-0.002 H 28.9765 a 0.2645835,0.2645835 0 0 0 -0.002,0 z" style="color:#000000;font-style:normal;font-variant:normal;font-weight:normal;font-stretch:normal;font-size:medium;line-height:normal;font-family:sans-serif;font-variant-ligatures:normal;font-variant-position:normal;font-variant-caps:normal;font-variant-numeric:normal;font-variant-alternates:normal;font-feature-settings:normal;text-indent:0;text-align:start;text-decoration:none;text-decoration-line:none;text-decoration-style:solid;text-decoration-color:#000000;letter-spacing:normal;word-spacing:normal;text-transform:none;writing-mode:lr-tb;direction:ltr;text-orientation:mixed;dominant-baseline:auto;baseline-shift:baseline;text-anchor:start;white-space:normal;shape-padding:0;clip-rule:nonzero;display:inline;overflow:visible;visibility:visible;isolation:auto;mix-blend-mode:normal;color-interpolation:sRGB;color-interpolation-filters:linearRGB;solid-color:#000000;solid-opacity:1;vector-effect:none;fill:#7cb342;fill-opacity:1;fill-rule:nonzero;stroke:none;stroke-width:0.43486536;stroke-linecap:round;stroke-linejoin:round;stroke-miterlimit:4;stroke-dasharray:none;stroke-dashoffset:0;stroke-opacity:1;color-rendering:auto;image-rendering:auto;shape-rendering:auto;text-rendering:auto;enable-background:accumulate"></path><path inkscape:connector-curvature="0" d="m 28.974432,289.11775 -0.771529,0.002 a 0.26460995,0.26460995 0 0 0 -0.10542,0.0212 c -0.700604,0.30588 -1.489112,0.8002 -2.057756,1.47639 0.479431,-0.41034 1.02632,-0.72794 1.528589,-0.94723 a 0.26460995,0.26460995 0 0 1 0.10542,-0.0212 l 0.771529,-0.002 a 0.26458349,0.26458349 0 0 1 0.0021,0 h 0.03927 l 0.771013,0.002 a 0.26460995,0.26460995 0 0 1 0.105936,0.0212 c 1.081771,0.47231 2.379003,1.39358 2.739883,2.7404 a 0.26460995,0.26460995 0 0 1 0,0.004 c 0.323576,1.2841 0.208041,2.48976 -0.40411,3.39411 -0.03646,0.0539 -0.07482,0.1067 -0.114722,0.15813 0.252901,-0.19876 0.468886,-0.42876 0.643889,-0.6873 0.612151,-0.90435 0.727685,-2.11001 0.404109,-3.39411 a 0.26460995,0.26460995 0 0 0 0,-0.004 c -0.360876,-1.34682 -1.658109,-2.26809 -2.73988,-2.7404 a 0.26460995,0.26460995 0 0 0 -0.105937,-0.0212 l -0.771011,-0.002 h -0.03927 a 0.26458349,0.26458349 0 0 0 -0.0021,0 z" style="color:#000000;font-style:normal;font-variant:normal;font-weight:normal;font-stretch:normal;font-size:medium;line-height:normal;font-family:sans-serif;font-variant-ligatures:normal;font-variant-position:normal;font-variant-caps:normal;font-variant-numeric:normal;font-variant-alternates:normal;font-feature-settings:normal;text-indent:0;text-align:start;text-decoration:none;text-decoration-line:none;text-decoration-style:solid;text-decoration-color:#000000;letter-spacing:normal;word-spacing:normal;text-transform:none;writing-mode:lr-tb;direction:ltr;text-orientation:mixed;dominant-baseline:auto;baseline-shift:baseline;text-anchor:start;white-space:normal;shape-padding:0;clip-rule:nonzero;display:inline;overflow:visible;visibility:visible;isolation:auto;mix-blend-mode:normal;color-interpolation:sRGB;color-interpolation-filters:linearRGB;solid-color:#000000;solid-opacity:1;vector-effect:none;fill:#699938;fill-opacity:1;fill-rule:nonzero;stroke:none;stroke-width:0.43486536;stroke-linecap:round;stroke-linejoin:round;stroke-miterlimit:4;stroke-dasharray:none;stroke-dashoffset:0;stroke-opacity:1;color-rendering:auto;image-rendering:auto;shape-rendering:auto;text-rendering:auto;enable-background:accumulate" id="path1473"></path><path inkscape:connector-curvature="0" d="m 28.337778,288.0589 c -0.435155,0 -0.792716,0.35807 -0.792716,0.79323 0,0.43516 0.357556,0.79478 0.792716,0.79478 h 0.794784 v 0.79324 a 0.26458349,0.26458349 0 0 0 0.264067,0.26561 0.26458349,0.26458349 0 0 0 0.265616,-0.26561 v -0.79324 h 0.02119 c 0.435161,0 0.794784,-0.35962 0.794784,-0.79478 0,-0.43516 -0.359629,-0.79323 -0.794784,-0.79323 z" style="color:#000000;font-style:normal;font-variant:normal;font-weight:normal;font-stretch:normal;font-size:medium;line-height:normal;font-family:sans-serif;font-variant-ligatures:normal;font-variant-position:normal;font-variant-caps:normal;font-variant-numeric:normal;font-variant-alternates:normal;font-feature-settings:normal;text-indent:0;text-align:start;text-decoration:none;text-decoration-line:none;text-decoration-style:solid;text-decoration-color:#000000;letter-spacing:normal;word-spacing:normal;text-transform:none;writing-mode:lr-tb;direction:ltr;text-orientation:mixed;dominant-baseline:auto;baseline-shift:baseline;text-anchor:start;white-space:normal;shape-padding:0;clip-rule:nonzero;display:inline;overflow:visible;visibility:visible;isolation:auto;mix-blend-mode:normal;color-interpolation:sRGB;color-interpolation-filters:linearRGB;solid-color:#000000;solid-opacity:1;vector-effect:none;fill:#6d4c41;fill-opacity:1;fill-rule:nonzero;stroke:none;stroke-width:0.43486536;stroke-linecap:round;stroke-linejoin:round;stroke-miterlimit:4;stroke-dasharray:none;stroke-dashoffset:0;stroke-opacity:1;color-rendering:auto;image-rendering:auto;shape-rendering:auto;text-rendering:auto;enable-background:accumulate" id="path1424"></path><path inkscape:connector-curvature="0" id="path1387" d="m 25.693304,291.49852 c -0.946831,0 -1.720702,0.77192 -1.720703,1.71875 10e-7,0.94683 0.773872,1.7207 1.720703,1.7207 0.946831,0 1.718749,-0.77387 1.71875,-1.7207 0,-0.94683 -0.771919,-1.71875 -1.71875,-1.71875 z" style="color:#000000;font-style:normal;font-variant:normal;font-weight:normal;font-stretch:normal;font-size:medium;line-height:normal;font-family:sans-serif;font-variant-ligatures:normal;font-variant-position:normal;font-variant-caps:normal;font-variant-numeric:normal;font-variant-alternates:normal;font-feature-settings:normal;text-indent:0;text-align:start;text-decoration:none;text-decoration-line:none;text-decoration-style:solid;text-decoration-color:#000000;letter-spacing:normal;word-spacing:normal;text-transform:none;writing-mode:lr-tb;direction:ltr;text-orientation:mixed;dominant-baseline:auto;baseline-shift:baseline;text-anchor:start;white-space:normal;shape-padding:0;clip-rule:nonzero;display:inline;overflow:visible;visibility:visible;isolation:auto;mix-blend-mode:normal;color-interpolation:sRGB;color-interpolation-filters:linearRGB;solid-color:#000000;solid-opacity:1;vector-effect:none;fill:#ffcd40;fill-opacity:1;fill-rule:nonzero;stroke:none;stroke-width:0.43486536;stroke-linecap:round;stroke-linejoin:round;stroke-miterlimit:4;stroke-dasharray:none;stroke-dashoffset:0;stroke-opacity:1;color-rendering:auto;image-rendering:auto;shape-rendering:auto;text-rendering:auto;enable-background:accumulate"></path><path inkscape:connector-curvature="0" id="path1354" d="m 24.650336,295.34617 c -0.401076,0 -0.732422,0.3294 -0.732422,0.73047 0,0.40107 0.331346,0.73242 0.732422,0.73242 h 1.86914 c 0.401076,0 0.732422,-0.33135 0.732422,-0.73242 0,-0.40107 -0.331346,-0.73047 -0.732422,-0.73047 z" style="color:#000000;font-style:normal;font-variant:normal;font-weight:normal;font-stretch:normal;font-size:medium;line-height:normal;font-family:sans-serif;font-variant-ligatures:normal;font-variant-position:normal;font-variant-caps:normal;font-variant-numeric:normal;font-variant-alternates:normal;font-feature-settings:normal;text-indent:0;text-align:start;text-decoration:none;text-decoration-line:none;text-decoration-style:solid;text-decoration-color:#000000;letter-spacing:normal;word-spacing:normal;text-transform:none;writing-mode:lr-tb;direction:ltr;text-orientation:mixed;dominant-baseline:auto;baseline-shift:baseline;text-anchor:start;white-space:normal;shape-padding:0;clip-rule:nonzero;display:inline;overflow:visible;visibility:visible;isolation:auto;mix-blend-mode:normal;color-interpolation:sRGB;color-interpolation-filters:linearRGB;solid-color:#000000;solid-opacity:1;vector-effect:none;fill:#ffcd40;fill-opacity:1;fill-rule:nonzero;stroke:none;stroke-width:0.43486536;stroke-linecap:round;stroke-linejoin:round;stroke-miterlimit:4;stroke-dasharray:none;stroke-dashoffset:0;stroke-opacity:1;color-rendering:auto;image-rendering:auto;shape-rendering:auto;text-rendering:auto;enable-background:accumulate"></path><path inkscape:connector-curvature="0" d="m 25.693495,291.49849 c -0.608659,0 -1.144993,0.32005 -1.451074,0.79943 0.266995,-0.17035 0.583072,-0.27027 0.921907,-0.27027 0.946831,0 1.718758,0.77193 1.718759,1.71876 -1e-6,0.33888 -0.100393,0.65489 -0.270785,0.92191 0.479681,-0.30602 0.79995,-0.84219 0.799951,-1.45108 -1e-6,-0.94682 -0.771927,-1.71875 -1.718758,-1.71875 z" style="color:#000000;font-style:normal;font-variant:normal;font-weight:normal;font-stretch:normal;font-size:medium;line-height:normal;font-family:sans-serif;font-variant-ligatures:normal;font-variant-position:normal;font-variant-caps:normal;font-variant-numeric:normal;font-variant-alternates:normal;font-feature-settings:normal;text-indent:0;text-align:start;text-decoration:none;text-decoration-line:none;text-decoration-style:solid;text-decoration-color:#000000;letter-spacing:normal;word-spacing:normal;text-transform:none;writing-mode:lr-tb;direction:ltr;text-orientation:mixed;dominant-baseline:auto;baseline-shift:baseline;text-anchor:start;white-space:normal;shape-padding:0;clip-rule:nonzero;display:inline;overflow:visible;visibility:visible;isolation:auto;mix-blend-mode:normal;color-interpolation:sRGB;color-interpolation-filters:linearRGB;solid-color:#000000;solid-opacity:1;vector-effect:none;fill:#f8a92d;fill-opacity:1;fill-rule:nonzero;stroke:none;stroke-width:0.43486536;stroke-linecap:round;stroke-linejoin:round;stroke-miterlimit:4;stroke-dasharray:none;stroke-dashoffset:0;stroke-opacity:1;color-rendering:auto;image-rendering:auto;shape-rendering:auto;text-rendering:auto;enable-background:accumulate" id="path1449"></path><path inkscape:connector-curvature="0" id="path1460" d="m 24.650148,295.34631 c -0.364928,-0.007 -0.698021,0.30012 -0.725537,0.66303 0.701317,-0.003 1.402674,-0.01 2.103965,-0.0108 0.266501,0.008 0.563291,0.13498 0.659438,0.40189 0.04503,0.12245 0.04402,0.25846 0.01007,0.38352 0.333759,-0.083 0.581974,-0.41959 0.55184,-0.76385 -0.02184,-0.36905 -0.360985,-0.68198 -0.730642,-0.67421 -0.623045,1.4e-4 -1.24609,2.7e-4 -1.869134,4.1e-4 z" style="color:#000000;font-style:normal;font-variant:normal;font-weight:normal;font-stretch:normal;font-size:medium;line-height:normal;font-family:sans-serif;font-variant-ligatures:normal;font-variant-position:normal;font-variant-caps:normal;font-variant-numeric:normal;font-variant-alternates:normal;font-feature-settings:normal;text-indent:0;text-align:start;text-decoration:none;text-decoration-line:none;text-decoration-style:solid;text-decoration-color:#000000;letter-spacing:normal;word-spacing:normal;text-transform:none;writing-mode:lr-tb;direction:ltr;text-orientation:mixed;dominant-baseline:auto;baseline-shift:baseline;text-anchor:start;white-space:normal;shape-padding:0;clip-rule:nonzero;display:inline;overflow:visible;visibility:visible;isolation:auto;mix-blend-mode:normal;color-interpolation:sRGB;color-interpolation-filters:linearRGB;solid-color:#000000;solid-opacity:1;vector-effect:none;fill:#f8a92d;fill-opacity:1;fill-rule:nonzero;stroke:none;stroke-width:0.43486536;stroke-linecap:round;stroke-linejoin:round;stroke-miterlimit:4;stroke-dasharray:none;stroke-dashoffset:0;stroke-opacity:1;color-rendering:auto;image-rendering:auto;shape-rendering:auto;text-rendering:auto;enable-background:accumulate"></path><path inkscape:connector-curvature="0" id="path1371" d="m 24.941351,294.40867 c -0.401076,0 -0.732422,0.33135 -0.732422,0.73242 0,0.40108 0.331353,0.73243 0.732422,0.73243 h 1.871094 c 0.401069,0 0.732422,-0.33135 0.732422,-0.73243 0,-0.40107 -0.331346,-0.73242 -0.732422,-0.73242 z" style="color:#000000;font-style:normal;font-variant:normal;font-weight:normal;font-stretch:normal;font-size:medium;line-height:normal;font-family:sans-serif;font-variant-ligatures:normal;font-variant-position:normal;font-variant-caps:normal;font-variant-numeric:normal;font-variant-alternates:normal;font-feature-settings:normal;text-indent:0;text-align:start;text-decoration:none;text-decoration-line:none;text-decoration-style:solid;text-decoration-color:#000000;letter-spacing:normal;word-spacing:normal;text-transform:none;writing-mode:lr-tb;direction:ltr;text-orientation:mixed;dominant-baseline:auto;baseline-shift:baseline;text-anchor:start;white-space:normal;shape-padding:0;clip-rule:nonzero;display:inline;overflow:visible;visibility:visible;isolation:auto;mix-blend-mode:normal;color-interpolation:sRGB;color-interpolation-filters:linearRGB;solid-color:#000000;solid-opacity:1;vector-effect:none;fill:#ffcd40;fill-opacity:1;fill-rule:nonzero;stroke:none;stroke-width:0.43486536;stroke-linecap:round;stroke-linejoin:round;stroke-miterlimit:4;stroke-dasharray:none;stroke-dashoffset:0;stroke-opacity:1;color-rendering:auto;image-rendering:auto;shape-rendering:auto;text-rendering:auto;enable-background:accumulate"></path><path inkscape:connector-curvature="0" d="m 24.941603,294.4089 c -0.339419,0 -0.626986,0.23793 -0.707967,0.55397 0.05757,-0.0148 0.116959,-0.0248 0.1788,-0.0248 h 1.870687 c 0.401076,0 0.732772,0.33119 0.732772,0.73226 0,0.0617 -0.01009,0.12087 -0.02481,0.17828 0.315783,-0.0812 0.553971,-0.36821 0.553971,-0.70745 0,-0.40107 -0.331695,-0.73225 -0.732771,-0.73225 z" style="color:#000000;font-style:normal;font-variant:normal;font-weight:normal;font-stretch:normal;font-size:medium;line-height:normal;font-family:sans-serif;font-variant-ligatures:normal;font-variant-position:normal;font-variant-caps:normal;font-variant-numeric:normal;font-variant-alternates:normal;font-feature-settings:normal;text-indent:0;text-align:start;text-decoration:none;text-decoration-line:none;text-decoration-style:solid;text-decoration-color:#000000;letter-spacing:normal;word-spacing:normal;text-transform:none;writing-mode:lr-tb;direction:ltr;text-orientation:mixed;dominant-baseline:auto;baseline-shift:baseline;text-anchor:start;white-space:normal;shape-padding:0;clip-rule:nonzero;display:inline;overflow:visible;visibility:visible;isolation:auto;mix-blend-mode:normal;color-interpolation:sRGB;color-interpolation-filters:linearRGB;solid-color:#000000;solid-opacity:1;vector-effect:none;fill:#f8a92d;fill-opacity:1;fill-rule:nonzero;stroke:none;stroke-width:0.43486536;stroke-linecap:round;stroke-linejoin:round;stroke-miterlimit:4;stroke-dasharray:none;stroke-dashoffset:0;stroke-opacity:1;color-rendering:auto;image-rendering:auto;shape-rendering:auto;text-rendering:auto;enable-background:accumulate" id="path1455"></path><path inkscape:connector-curvature="0" d="m 27.165757,284.49269 c -0.197589,0.008 -0.388847,0.0466 -0.546737,0.1757 -0.112876,0.0923 -0.183665,0.23174 -0.211357,0.38344 0.07451,-0.0165 0.150795,-0.0268 0.228927,-0.03 0.395178,-0.0166 0.866819,0.0914 1.371492,0.21859 0.504674,0.12722 1.036687,0.27843 1.499649,0.37103 0.02286,0.005 0.146605,-0.008 0.299207,-0.0605 0.152603,-0.0527 0.335081,-0.13227 0.522965,-0.20877 0.187885,-0.0765 0.37953,-0.1504 0.576192,-0.1819 0.196662,-0.0315 0.436759,-0.0164 0.607714,0.15451 0.308179,0.30818 0.309556,0.75803 0.162264,1.14257 -0.147291,0.38455 -0.423262,0.76124 -0.736388,1.11724 -0.03886,0.0442 -0.07963,0.0864 -0.119373,0.12971 0.216903,-0.2027 0.438462,-0.42003 0.648539,-0.65887 0.313127,-0.356 0.589098,-0.7327 0.736389,-1.11725 0.147292,-0.38454 0.145915,-0.83439 -0.162264,-1.14257 -0.170955,-0.17096 -0.411052,-0.18602 -0.607715,-0.15451 -0.196662,0.0315 -0.388307,0.10535 -0.576191,0.1819 -0.187884,0.0765 -0.370363,0.15612 -0.522966,0.20878 -0.152602,0.0527 -0.276348,0.0651 -0.299206,0.0605 -0.462963,-0.0926 -0.994975,-0.24382 -1.499649,-0.37104 -0.504673,-0.12723 -0.976314,-0.23524 -1.371492,-0.21859 z" style="color:#000000;font-style:normal;font-variant:normal;font-weight:normal;font-stretch:normal;font-size:medium;line-height:normal;font-family:sans-serif;font-variant-ligatures:normal;font-variant-position:normal;font-variant-caps:normal;font-variant-numeric:normal;font-variant-alternates:normal;font-feature-settings:normal;text-indent:0;text-align:start;text-decoration:none;text-decoration-line:none;text-decoration-style:solid;text-decoration-color:#000000;letter-spacing:normal;word-spacing:normal;text-transform:none;writing-mode:lr-tb;direction:ltr;text-orientation:mixed;dominant-baseline:auto;baseline-shift:baseline;text-anchor:start;white-space:normal;shape-padding:0;clip-rule:nonzero;display:inline;overflow:visible;visibility:visible;isolation:auto;mix-blend-mode:normal;color-interpolation:sRGB;color-interpolation-filters:linearRGB;solid-color:#000000;solid-opacity:1;vector-effect:none;fill:#699938;fill-opacity:1;fill-rule:nonzero;stroke:none;stroke-width:0.43486536;stroke-linecap:round;stroke-linejoin:round;stroke-miterlimit:4;stroke-dasharray:none;stroke-dashoffset:0;stroke-opacity:1;color-rendering:auto;image-rendering:auto;shape-rendering:auto;text-rendering:auto;enable-background:accumulate" id="path1468"></path><path sodipodi:nodetypes="cccccsccscscsccccccsccsccccccccccccccccccccccccccccccccsssssssccsccscscscccssccccccccccccccsscccccccccccccsssssssssssssssssss" inkscape:connector-curvature="0" id="path1095" d="m 27.166816,284.49169 c -0.197588,0.008 -0.390912,0.0466 -0.548802,0.1757 -0.15789,0.12911 -0.235247,0.34948 -0.222726,0.56844 0.02504,0.43791 0.29573,0.96604 0.861446,1.78335 0.296649,0.42859 0.472663,0.74893 0.691431,1.14722 -0.23939,0.13784 -0.404628,0.39327 -0.404628,0.68626 0,0.17845 0.06294,0.34233 0.164333,0.47543 -0.878525,0.45454 -1.80286,1.18501 -2.221054,2.18281 -0.850694,0.10237 -1.515153,0.83014 -1.515153,1.70739 0,0.5174 0.231706,0.98156 0.59583,1.29708 -0.212576,0.12895 -0.357602,0.36071 -0.357602,0.62477 0,0.1105 0.02699,0.21457 0.07183,0.30902 -0.21639,0.12804 -0.364836,0.36147 -0.364836,0.62839 0,0.40107 0.331182,0.73225 0.732255,0.73225 1.439998,0.004 3.028143,-0.006 4.343922,0 1.278143,0 2.652244,-0.60236 3.235978,-1.5291 0.612151,-0.90435 0.728202,-2.11259 0.404625,-3.39669 -5.29e-4,-10e-4 -0.0013,-0.003 -0.0021,-0.004 -0.31577,-1.17847 -1.348989,-2.02966 -2.326989,-2.54042 0.10659,-0.13508 0.172598,-0.30345 0.172598,-0.4873 0,-0.24105 -0.111789,-0.45611 -0.283702,-0.60255 0.35574,-0.28474 0.842089,-0.71269 1.273823,-1.20355 0.313126,-0.35601 0.589097,-0.7327 0.736388,-1.11724 0.147291,-0.38454 0.146434,-0.83645 -0.161745,-1.14463 -0.170955,-0.17096 -0.411054,-0.18551 -0.607716,-0.154 -0.196662,0.0315 -0.388308,0.10485 -0.576191,0.18139 -0.187886,0.0765 -0.37088,0.15818 -0.523483,0.21084 -0.152602,0.0527 -0.275831,0.0635 -0.298691,0.0589 -0.462963,-0.0926 -0.995492,-0.24382 -1.500167,-0.37104 -0.504671,-0.12722 -0.97373,-0.23575 -1.368909,-0.21911 z m 0.0217,0.52917 c 0.270743,-0.0114 0.725625,0.0789 1.218528,0.20308 0.492903,0.12426 1.030486,0.27823 1.525489,0.37724 0.208235,0.0416 0.388747,-0.0141 0.574125,-0.078 0.185378,-0.064 0.373753,-0.14901 0.55087,-0.22117 0.177118,-0.0722 0.345462,-0.12982 0.460955,-0.14832 0.334968,-0.0182 0.250264,0.42787 0.191204,0.58602 -0.06318,0.16495 -0.176149,0.35375 -0.314712,0.54777 -1.274498,0.36071 -2.566778,0.12756 -4.13463,-0.26252 -0.221975,-0.39629 -0.330049,-0.68014 -0.337963,-0.81856 0,-0.14693 0.121105,-0.18551 0.266134,-0.18551 z m 0.471805,1.64589 c 0.279847,0.065 0.552921,0.1206 0.823206,0.17002 l 0.109553,1.22111 h -0.09973 c -0.295378,-0.52661 -0.564398,-0.99787 -0.833024,-1.39113 z m 1.362191,0.25528 c 0.166378,0.0222 0.33202,0.0404 0.496094,0.0527 l -0.391449,1.08314 z m 1.820561,0.0217 c -0.398611,0.41334 -0.834496,0.78115 -1.105876,0.99322 l 0.336412,-0.94258 c 0.257564,-10e-4 0.513945,-0.015 0.769464,-0.0506 z m -2.504242,1.64331 h 1.345655 c 0.151154,0 0.263549,0.11445 0.263549,0.26561 0,0.15115 -0.112395,0.26407 -0.263549,0.26407 h -1.345655 c -0.151153,0 -0.265615,-0.11292 -0.265615,-0.26407 0,-0.15116 0.114462,-0.26561 0.265615,-0.26561 z m 1.374535,1.05885 c 0.979373,0.43572 2.117121,1.29446 2.406573,2.36936 0.296495,1.17841 0.176078,2.22085 -0.330213,2.96881 -0.50659,0.7484 -1.408615,1.23994 -2.80293,1.27693 -0.882637,-0.004 -1.382847,-10e-4 -1.760617,0 0.01561,-0.059 0.02635,-0.1199 0.02635,-0.18346 0,-0.11088 -0.02722,-0.21536 -0.07235,-0.31005 0.215739,-0.12821 0.363284,-0.36093 0.363284,-0.62736 0,-0.36401 -0.273455,-0.66784 -0.623734,-0.7214 0.30413,-0.31022 0.492992,-0.73369 0.492992,-1.20044 0,-0.82157 -0.582734,-1.51198 -1.355472,-1.68052 0.443324,-0.84915 1.389463,-1.52283 2.218985,-1.89187 h 0.855308 v 0.79271 c 0,0.35286 0.529167,0.35286 0.529167,0 v -0.79271 z m -0.958538,2.01744 v 0.0997 h -0.246497 c -0.0084,-4e-4 -0.01688,-4e-4 -0.02532,0 -0.135345,0.0136 -0.23836,0.12753 -0.238228,0.26355 v 0.99839 c 5.29e-4,0.14531 0.118237,0.26297 0.263552,0.26355 h 0.756025 v 0.58963 h -0.75603 c -0.360786,-0.008 -0.360786,0.53726 0,0.52916 h 0.246496 v 0.0997 c 0,0.35286 0.529167,0.35286 0.529167,0 v -0.0997 h 0.245981 c 0.145311,-5.8e-4 0.262966,-0.11823 0.263548,-0.26355 v -1.11879 c 5.3e-4,-0.14612 -0.11743,-0.26503 -0.263548,-0.26562 h -0.756029 v -0.46715 h 0.756029 c 0.360785,0.008 0.360785,-0.53727 0,-0.52917 h -0.245981 v -0.0997 c 0.0028,-0.15001 -0.11974,-0.27205 -0.26784,-0.26914 -0.148098,0.003 -0.264078,0.12296 -0.261329,0.26914 z m -3.062863,0.36329 c 0.660848,0 1.191658,0.53081 1.191658,1.19166 0,0.66085 -0.53081,1.18907 -1.191658,1.18907 -0.660849,0 -1.191142,-0.52822 -1.191142,-1.18907 0,-0.66085 0.530293,-1.19166 1.191142,-1.19166 z m -0.749825,2.91042 h 1.869135 c 0.117068,0 0.203089,0.0861 0.203089,0.20309 0,0.11706 -0.08602,0.20308 -0.203089,0.20308 H 24.94214 c -0.117068,0 -0.203088,-0.0861 -0.203088,-0.20308 0,-0.11707 0.08602,-0.20309 0.203088,-0.20309 z m -0.293005,0.93741 h 1.871205 c 0.117067,0 0.203086,0.0861 0.203086,0.20309 0,0.11706 -0.08602,0.20308 -0.203086,0.20308 h -1.87121 c -0.117067,0 -0.203088,-0.0861 -0.203088,-0.20308 0,-0.11707 0.08602,-0.20309 0.203089,-0.20309 z" style="color:#000000;font-style:normal;font-variant:normal;font-weight:normal;font-stretch:normal;font-size:medium;line-height:normal;font-family:sans-serif;font-variant-ligatures:normal;font-variant-position:normal;font-variant-caps:normal;font-variant-numeric:normal;font-variant-alternates:normal;font-feature-settings:normal;text-indent:0;text-align:start;text-decoration:none;text-decoration-line:none;text-decoration-style:solid;text-decoration-color:#000000;letter-spacing:normal;word-spacing:normal;text-transform:none;writing-mode:lr-tb;direction:ltr;text-orientation:mixed;dominant-baseline:auto;baseline-shift:baseline;text-anchor:start;white-space:normal;shape-padding:0;clip-rule:nonzero;display:inline;overflow:visible;visibility:visible;isolation:auto;mix-blend-mode:normal;color-interpolation:sRGB;color-interpolation-filters:linearRGB;solid-color:#000000;solid-opacity:1;vector-effect:none;fill:#000000;fill-opacity:1;fill-rule:nonzero;stroke:none;stroke-width:0.43486536;stroke-linecap:round;stroke-linejoin:round;stroke-miterlimit:4;stroke-dasharray:none;stroke-dashoffset:0;stroke-opacity:1;color-rendering:auto;image-rendering:auto;shape-rendering:auto;text-rendering:auto;enable-background:accumulate"></path></g></g></svg>